HIERARCHY
ROOT Hips
{
	OFFSET 0.000000 0.000000 0.000000
	CHANNELS 6 Xposition Yposition Zposition Zrotation Yrotation Xrotation 
	JOINT LHipJoint
	{
		OFFSET 0.000000 0.000000 0.000000
		CHANNELS 3 Zrotation Yrotation Xrotation
		JOINT LeftUpLeg
		{
			OFFSET 1.363060 -1.794630 0.839290
			CHANNELS 3 Zrotation Yrotation Xrotation
			JOINT LeftLeg
			{
				OFFSET 2.448110 -6.726130 0.000000
				CHANNELS 3 Zrotation Yrotation Xrotation
				JOINT LeftFoot
				{
					OFFSET 2.562200 -7.039590 0.000000
					CHANNELS 3 Zrotation Yrotation Xrotation
					JOINT LeftToeBase
					{
						OFFSET 0.157640 -0.433110 2.322550
						CHANNELS 3 Zrotation Yrotation Xrotation
						End Site
						{
							OFFSET 0.000000 0.000000 0.000000
						}
					}
				}
			}
		}
	}
	JOINT RHipJoint
	{
		OFFSET 0.000000 0.000000 0.000000
		CHANNELS 3 Zrotation Yrotation Xrotation
		JOINT RightUpLeg
		{
			OFFSET -1.305520 -1.794630 0.839290
			CHANNELS 3 Zrotation Yrotation Xrotation
			JOINT RightLeg
			{
				OFFSET -2.542530 -6.985550 0.000000
				CHANNELS 3 Zrotation Yrotation Xrotation
				JOINT RightFoot
				{
					OFFSET -2.568260 -7.056230 0.000000
					CHANNELS 3 Zrotation Yrotation Xrotation
					JOINT RightToeBase
					{
						OFFSET -0.164730 -0.452590 2.363150
						CHANNELS 3 Zrotation Yrotation Xrotation
						End Site
						{
							OFFSET 0.000000 0.000000 0.000000
						}
					}
				}
			}
		}
	}
	JOINT LowerBack
	{
		OFFSET 0.000000 0.000000 0.000000
		CHANNELS 3 Zrotation Yrotation Xrotation
		JOINT Spine
		{
			OFFSET 0.028270 2.035590 -0.193380
			CHANNELS 3 Zrotation Yrotation Xrotation
			JOINT Spine1
			{
				OFFSET 0.056720 2.048850 -0.042750
				CHANNELS 3 Zrotation Yrotation Xrotation
				JOINT Neck
				{
					OFFSET 0.000000 0.000000 0.000000
					CHANNELS 3 Zrotation Yrotation Xrotation
					JOINT Neck1
					{
						OFFSET -0.054170 1.746240 0.172020
						CHANNELS 3 Zrotation Yrotation Xrotation
						JOINT Head
						{
							OFFSET 0.104070 1.761360 -0.123970
							CHANNELS 3 Zrotation Yrotation Xrotation
							End Site
							{
								OFFSET 0.000000 0.000000 0.000000
							}
						}
					}
				}
				JOINT LeftShoulder
				{
					OFFSET 0.000000 0.000000 0.000000
					CHANNELS 3 Zrotation Yrotation Xrotation
					JOINT LeftArm
					{
						OFFSET 3.362410 1.200890 -0.311210
						CHANNELS 3 Zrotation Yrotation Xrotation
						JOINT LeftForeArm
						{
							OFFSET 4.983000 -0.000000 -0.000000
							CHANNELS 3 Zrotation Yrotation Xrotation
							JOINT LeftHand
							{
								OFFSET 3.483560 -0.000000 -0.000000
								CHANNELS 3 Zrotation Yrotation Xrotation
								JOINT LeftFingerBase
								{
									OFFSET 0.000000 0.000000 0.000000
									CHANNELS 3 Zrotation Yrotation Xrotation
									JOINT LeftHandIndex1
									{
										OFFSET 0.715260 -0.000000 -0.000000
										CHANNELS 3 Zrotation Yrotation Xrotation
										End Site
										{
											OFFSET 0.000000 0.000000 0.000000
										}
									}
								}
								JOINT LThumb
								{
									OFFSET 0.000000 0.000000 0.000000
									CHANNELS 3 Zrotation Yrotation Xrotation
									End Site
									{
										OFFSET 0.000000 0.000000 0.000000
									}
								}
							}
						}
					}
				}
				JOINT RightShoulder
				{
					OFFSET 0.000000 0.000000 0.000000
					CHANNELS 3 Zrotation Yrotation Xrotation
					JOINT RightArm
					{
						OFFSET -3.136600 1.374050 -0.404650
						CHANNELS 3 Zrotation Yrotation Xrotation
						JOINT RightForeArm
						{
							OFFSET -5.241900 -0.000000 -0.000000
							CHANNELS 3 Zrotation Yrotation Xrotation
							JOINT RightHand
							{
								OFFSET -3.444170 -0.000000 -0.000000
								CHANNELS 3 Zrotation Yrotation Xrotation
								JOINT RightFingerBase
								{
									OFFSET 0.000000 0.000000 0.000000
									CHANNELS 3 Zrotation Yrotation Xrotation
									JOINT RightHandIndex1
									{
										OFFSET -0.622530 -0.000000 -0.000000
										CHANNELS 3 Zrotation Yrotation Xrotation
										End Site
										{
											OFFSET 0.000000 0.000000 0.000000
										}
									}
								}
								JOINT RThumb
								{
									OFFSET 0.000000 0.000000 0.000000
									CHANNELS 3 Zrotation Yrotation Xrotation
									End Site
									{
										OFFSET 0.000000 0.000000 0.000000
									}
								}
							}
						}
					}
				}
			}
		}
	}
}
MOTION
Frames: 4
Frame Time: 0.008333
12.685763 17.436840 -25.202074 176.195633 -51.355376 -168.465722 0.225838 -1.947405 -2.538399 -18.624038 20.092772 -46.414923 6.676240 16.158528 49.142246 -1.132404 6.049163 2.580601 1.047900 -6.509600 -18.270400 -1.975815 0.568155 -1.494245 15.388647 14.318706 -16.142121 -3.583814 -12.629171 36.753987 -1.817509 4.729276 -12.980625 -0.934600 6.158000 -17.243600 2.037699 0.925092 6.798103 0.896986 0.941643 -4.464592 -0.123827 0.794737 -0.432395 1.313715 12.686139 -9.197393 -1.441475 17.350307 10.441188 -2.563700 8.495900 5.636400 4.773811 -10.843645 1.504551 -84.213823 -6.355964 45.844759 23.777959 -29.196006 -7.780308 -0.722863 -2.087471 -24.120624 16.521480 46.613801 13.538900 -7.125000 0.000000 0.000000 -44.127700 75.694600 -33.168400 -3.377227 12.507315 4.649705 72.138952 -1.692335 16.885104 -31.056493 34.549818 -9.981306 -0.603922 -2.042950 -11.578214 -23.747632 17.912494 -8.223600 7.125000 0.000000 0.000000 3.617500 -8.337500 3.061000 
12.760149 17.480146 -25.109635 175.664614 -49.446170 -167.953854 0.271368 -1.740980 -2.366220 -16.462617 20.621639 -44.339265 6.775403 16.093257 49.092842 -1.417477 7.098605 2.014057 0.424500 -4.181700 -11.588500 -1.985684 0.553859 -1.517294 14.553282 15.603957 -16.585786 -3.500553 -12.587631 36.449293 -1.781928 4.838563 -12.275852 -1.012100 6.400900 -17.952300 1.544889 0.508220 6.749197 0.897314 0.407908 -4.469733 -0.118090 0.493219 -0.296623 1.497427 13.066228 -9.364649 -1.316835 17.853545 10.537292 -2.491200 8.750700 5.784700 4.772483 -10.814784 1.514216 -82.987257 -8.313175 46.540295 24.163698 -29.561660 -7.979781 -0.710980 -2.084044 -23.700388 15.636976 46.862510 12.892000 -7.125000 0.000000 0.000000 -45.890000 75.513000 -34.444000 -3.321772 12.463189 4.788436 70.124261 -2.202351 16.558021 -29.422583 33.041501 -9.095953 -0.597121 -2.038526 -12.252478 -23.392557 17.436985 -7.886200 7.125000 0.000000 0.000000 3.812600 -8.925300 3.182100 
12.822994 17.541048 -25.019367 175.244215 -47.527925 -167.365001 0.239393 -1.542208 -2.160256 -14.186428 20.688010 -41.610803 6.632836 15.845401 48.175328 -1.796838 8.540080 2.581317 0.349600 -3.799200 -10.512500 -1.973495 0.540619 -1.545128 13.692742 16.985185 -17.089293 -3.363071 -12.490947 35.921324 -1.723880 4.938628 -11.263966 -0.998400 6.358900 -17.829200 1.159364 0.191352 6.479937 0.856706 0.000183 -4.489923 -0.385082 0.260267 -0.206864 1.797031 13.331814 -9.454496 -1.232291 18.184924 10.532973 -2.470800 8.930900 5.848800 4.766116 -10.809946 1.564557 -81.251259 -10.466569 47.289876 24.542351 -29.909704 -8.215119 -0.726402 -2.110853 -23.479459 16.657198 47.735725 13.871900 -7.125000 0.000000 0.000000 -47.869300 76.414000 -36.869200 -3.335843 12.450606 4.850926 69.508620 -2.976151 13.482425 -27.774191 31.514924 -8.285947 -0.717471 -1.988135 -9.522235 -22.851817 17.648618 -7.735700 7.125000 0.000000 0.000000 4.189500 -8.822700 3.507000 
12.875327 17.598523 -24.929213 174.770254 -45.560593 -166.694513 0.166943 -1.321043 -1.900293 -11.814629 20.301763 -38.324188 6.438655 15.571182 47.174791 -1.907305 9.060288 3.605327 0.186100 -2.778500 -7.662800 -1.950390 0.523539 -1.580611 12.740886 18.298675 -17.618730 -3.226279 -12.397955 35.392736 -1.670723 5.028572 -10.267463 -0.889700 6.012400 -16.820500 0.658150 -0.085750 6.154772 0.808617 -0.361137 -4.525198 -0.524973 0.051542 -0.117593 1.756820 13.528292 -9.729053 -1.067170 18.441427 10.527738 -2.320600 9.054500 5.887000 4.740814 -10.829999 1.605837 -79.141674 -12.798353 47.946591 25.047266 -30.365932 -8.520252 -0.758905 -2.138056 -23.677032 18.759792 48.383463 15.700400 -7.125000 0.000000 0.000000 -48.248000 77.595700 -38.231300 -3.362784 12.420978 4.921736 68.601682 -4.175591 9.881043 -26.428004 30.173095 -7.645593 -0.851650 -1.911231 -6.386244 -22.058421 17.967501 -7.515800 7.125000 0.000000 0.000000 4.736500 -8.665000 3.982800 
